#!OML:ASF F:\VICON\USERDATA\INSTALL\rory3\rory3.ASF
:FULLY-SPECIFIED
:DEGREES
271
root 3.31246 17.9577 21.2234 -1.96959 -26.7042 11.2341
lowerback 39.4808 1.08994 4.23324
upperback 7.59312 4.27488 11.1553
thorax -11.5786 1.68768 8.15232
lowerneck -13.9551 1.80798 0.960487
upperneck 2.69046 2.8851 -9.80636
head 3.23611 0.96656 -2.96354
rclavicle 3.81667e-014 -6.36111e-014
rhumerus -44.7897 -38.2375 -40.2825
rradius 91.341
rwrist -24.2023
rhand -20.5755 1.83174
rfingers 7.12502
rthumb 5.78416 -28.0693
lclavicle 3.81667e-014 -6.36111e-014
lhumerus -50.0715 6.96659 86.5884
lradius 48.6892
lwrist 17.2463
lhand -9.71167 48.2311
lfingers 7.12502
lthumb 16.2613 77.5692
rfemur -31.8259 1.66027 14.5613
rtibia 49.5185
rfoot -13.5251 -4.10967
rtoes 19.7822
lfemur -26.4794 4.33235 -27.885
ltibia 60.1618
lfoot -4.10677 2.99028
ltoes -28.8154
272
root 3.30648 17.9853 21.0708 -1.90788 -26.9118 10.8924
lowerback 39.3179 1.01554 4.3209
upperback 7.50107 4.20767 11.1089
thorax -11.6056 1.65689 8.08549
lowerneck -13.4905 1.9255 0.916955
upperneck 2.75581 3.02305 -9.38356
head 3.17862 1.06657 -2.81754
rclavicle -1.90833e-014 9.54166e-015
rhumerus -46.5777 -39.1037 -38.921
rradius 92.4411
rwrist -24.6351
rhand -19.8243 1.40864
rfingers 7.12502
rthumb 6.5094 -28.4713
lclavicle -1.90833e-014 9.54166e-015
lhumerus -50.5557 6.54255 86.4236
lradius 47.5837
lwrist 16.4963
lhand -9.24358 47.3219
lfingers 7.12502
lthumb 16.712 76.6225
rfemur -31.9497 1.63304 15.2577
rtibia 48.8485
rfoot -12.5394 -4.33853
rtoes 20.9008
lfemur -25.0139 5.07323 -28.0482
ltibia 60.3687
lfoot -3.74161 1.72034
ltoes -30.9312
273
root 3.30086 18.0059 20.9214 -1.94643 -27.0111 10.8493
lowerback 38.8312 0.924436 4.14064
upperback 7.61692 3.9652 11.0754
thorax -11.413 1.55928 8.18642
lowerneck -13.4179 2.01078 0.742622
upperneck 2.96345 3.15717 -8.99003
head 3.22504 1.14563 -2.65919
rclavicle -3.18055e-015 -8.5875e-014
rhumerus -47.9946 -38.9094 -38.0717
rradius 94.0378
rwrist -25.8618
rhand -20.254 0.310596
rfingers 7.12502
rthumb 6.09461 -29.5817
lclavicle -3.18055e-015 -8.5875e-014
lhumerus -50.8463 6.50713 86.1727
lradius 46.6691
lwrist 15.8899
lhand -8.56655 46.8008
lfingers 7.12502
lthumb 17.3636 76.0452
rfemur -32.0868 1.51047 15.6444
rtibia 48.1699
rfoot -11.6816 -4.57854
rtoes 21.5597
lfemur -23.4912 5.65869 -28.5439
ltibia 60.3258
lfoot -3.22386 0.203754
ltoes -34.2845
274
root 3.29618 18.0336 20.779 -2.14655 -27.0291 11.0709
lowerback 38.4466 0.770919 3.8304
upperback 7.5932 3.60782 10.9386
thorax -11.272 1.41272 8.35621
lowerneck -13.4785 2.12194 0.686212
upperneck 3.35009 3.34017 -8.86525
head 3.35737 1.22862 -2.59832
rclavicle 6.36111e-015 9.85972e-014
rhumerus -49.0746 -38.9659 -37.367
rradius 95.2322
rwrist -26.7498
rhand -19.974 -0.152693
rfingers 7.12502
rthumb 6.3649 -30.0371
lclavicle 6.36111e-015 9.85972e-014
lhumerus -51.2893 6.47605 85.9353
lradius 45.886
lwrist 15.4654
lhand -7.63328 46.6963
lfingers 7.12502
lthumb 18.2617 75.8591
rfemur -32.0945 1.12519 15.7652
rtibia 47.4711
rfoot -10.8134 -4.58599
rtoes 20.9479
lfemur -21.8318 5.99329 -29.2939
ltibia 60.0397
lfoot -2.66688 -1.50818
ltoes -35.8347
275
root 3.2919 18.0755 20.6377 -2.42493 -26.7773 11.323
lowerback 37.9345 0.452371 3.63134
upperback 7.6839 3.04892 10.6973
thorax -10.9039 1.168 8.43009
lowerneck -13.5653 2.3976 1.17998
upperneck 3.491 3.66591 -9.18915
head 3.44692 1.37581 -2.75391
rclavicle -8.5875e-014 -3.49861e-014
rhumerus -49.5392 -39.0566 -37.1952
rradius 96.066
rwrist -27.3722
rhand -18.9657 -0.0651366
rfingers 7.12502
rthumb 7.33822 -29.9179
lclavicle -8.5875e-014 -3.49861e-014
lhumerus -51.5972 6.48625 85.4978
lradius 45.3025
lwrist 15.2124
lhand -6.54946 46.8132
lfingers 7.12502
lthumb 19.3041 75.875
rfemur -31.8629 0.583272 15.7959
rtibia 46.7175
rfoot -10.1818 -4.5121
rtoes 22.0517
lfemur -20.0988 6.00087 -30.0462
ltibia 59.5515
lfoot -1.95528 -3.18536
ltoes -36.5419
276
root 3.29034 18.112 20.4864 -2.38768 -26.3075 11.1422
lowerback 37.1678 -0.00692614 3.97343
upperback 7.85608 2.48772 10.4782
thorax -10.3158 0.905632 8.22497
lowerneck -13.901 2.38619 1.25642
upperneck 3.70093 3.63462 -8.8869
head 3.55607 1.36202 -2.67359
rclavicle -3.49861e-014 -2.8625e-014
rhumerus -50.0205 -39.331 -37.1101
rradius 96.9757
rwrist -27.8332
rhand -17.991 -0.214522
rfingers 7.12502
rthumb 8.27906 -30.0323
lclavicle -3.49861e-014 -2.8625e-014
lhumerus -51.5071 6.30409 85.0318
lradius 44.5502
lwrist 14.95
lhand -5.90461 46.4202
lfingers 7.12502
lthumb 19.924 75.4189
rfemur -31.7397 0.0441586 16.2459
rtibia 45.8916
rfoot -9.50703 -4.78431
rtoes 22.9308
lfemur -18.6316 5.7715 -30.391
ltibia 58.9882
lfoot -1.24534 -4.63915
ltoes -36.317
277
root 3.27753 18.1275 20.3295 -2.18517 -26.0466 10.744
lowerback 36.9903 -0.255698 3.96712
upperback 7.52546 2.21686 10.518
thorax -10.5989 0.793385 8.39522
lowerneck -13.4579 2.50058 1.33368
upperneck 3.87808 3.78261 -8.84176
head 3.5468 1.44561 -2.66349
rclavicle -4.77083e-014 -1.17681e-013
rhumerus -51.013 -38.299 -36.7012
rradius 98.3998
rwrist -29.5609
rhand -18.4542 -1.03853
rfingers 7.12502
rthumb 7.83192 -30.8735
lclavicle -4.77083e-014 -1.17681e-013
lhumerus -52.2942 6.14544 84.6708
lradius 43.9521
lwrist 14.8988
lhand -5.42178 46.2173
lfingers 7.12502
lthumb 20.3881 75.167
rfemur -31.7755 -0.147926 16.9706
rtibia 45.0367
rfoot -8.6754 -5.30499
rtoes 23.2231
lfemur -17.2942 5.77941 -30.4755
ltibia 58.3391
lfoot -0.677957 -6.13878
ltoes -36.6735
278
root 3.26931 18.1443 20.1814 -2.11984 -26.1078 10.435
lowerback 36.7801 -0.436385 3.98391
upperback 7.27915 2.00873 10.4769
thorax -10.7721 0.705837 8.43329
lowerneck -13.0514 2.60281 1.28839
upperneck 4.00718 3.92885 -8.76594
head 3.52547 1.52799 -2.62457
rclavicle 1.27222e-014 6.36111e-015
rhumerus -51.6685 -37.8413 -36.0928
rradius 99.1066
rwrist -31.2067
rhand -17.8519 -1.26393
rfingers 7.12502
rthumb 8.41324 -31.0764
lclavicle 1.27222e-014 6.36111e-015
lhumerus -53.1866 6.21061 84.2626
lradius 43.5702
lwrist 14.7509
lhand -5.13415 46.1972
lfingers 7.12502
lthumb 20.6645 75.1171
rfemur -31.7707 -0.465405 17.632
rtibia 44.2148
rfoot -7.81303 -5.35685
rtoes 24.8499
lfemur -15.8221 5.93806 -30.7313
ltibia 57.5336
lfoot -0.00106971 -7.41688
ltoes -37.3729
279
root 3.25675 18.1543 20.0312 -1.99989 -26.9631 10.3961
lowerback 36.183 -0.147557 3.4016
upperback 7.22767 2.09542 10.3752
thorax -10.6502 0.76572 8.59121
lowerneck -12.4703 2.72184 1.34912
upperneck 3.86364 4.06541 -8.79228
head 3.39712 1.61454 -2.63743
rclavicle 4.77083e-014 -2.8625e-014
rhumerus -52.2983 -37.1341 -35.7002
rradius 100.003
rwrist -33.1455
rhand -16.8151 -0.862945
rfingers 7.12502
rthumb 9.41379 -30.6327
lclavicle 4.77083e-014 -2.8625e-014
lhumerus -54.273 6.87769 83.6302
lradius 43.5662
lwrist 14.0701
lhand -5.08221 46.0884
lfingers 7.12502
lthumb 20.7144 75.0029
rfemur -32.1375 -0.128263 18.0653
rtibia 43.5163
rfoot -7.01056 -5.15354
rtoes 27.2569
lfemur -14.5987 6.80262 -31.2648
ltibia 56.529
lfoot 0.842194 -8.38067
ltoes -36.717
280
root 3.24748 18.1562 19.8838 -2.15814 -26.6215 10.4986
lowerback 35.6328 -0.419582 3.1644
upperback 7.19579 1.61999 10.2722
thorax -10.4237 0.55933 8.7938
lowerneck -12.3422 2.89709 1.40687
upperneck 3.96464 4.31032 -8.93346
head 3.42504 1.7306 -2.67366
rclavicle -4.77083e-014 4.77083e-014
rhumerus -52.5779 -36.5983 -35.4194
rradius 100.733
rwrist -34.6973
rhand -15.3866 -0.648788
rfingers 7.12502
rthumb 10.7918 -30.3515
lclavicle -4.77083e-014 4.77083e-014
lhumerus -54.3269 6.95213 83.1566
lradius 43.0483
lwrist 14.2115
lhand -4.76121 46.4038
lfingers 7.12502
lthumb 21.0228 75.2843
rfemur -32.148 -0.474842 18.2172
rtibia 43.0008
rfoot -6.47271 -5.17881
rtoes 27.3722
lfemur -13.0593 6.62605 -31.8854
ltibia 55.3362
lfoot 1.77411 -9.18462
ltoes -34.7515
281
root 3.24104 18.1523 19.7265 -2.18597 -26.3554 10.8285
lowerback 34.839 -0.574396 2.83015
upperback 7.17441 1.22837 10.0583
thorax -10.0951 0.393352 8.88096
lowerneck -12.4853 3.05721 1.49214
upperneck 4.2287 4.53866 -8.97609
head 3.54345 1.83197 -2.68213
rclavicle -4.13472e-014 -2.54444e-014
rhumerus -52.9187 -36.218 -35.2438
rradius 101.662
rwrist -35.8591
rhand -14.915 -1.26321
rfingers 7.12502
rthumb 11.2467 -30.9417
lclavicle -4.13472e-014 -2.54444e-014
lhumerus -54.3152 6.88413 82.6468
lradius 42.6047
lwrist 14.2778
lhand -4.78537 46.5572
lfingers 7.12502
lthumb 20.9996 75.4403
rfemur -32.547 -1.0461 18.1956
rtibia 42.6006
rfoot -5.84528 -4.85842
rtoes 25.8439
lfemur -11.8343 6.41831 -32.7676
ltibia 54.0308
lfoot 2.20566 -9.92031
ltoes -34.0717
282
root 3.23855 18.1342 19.56 -2.18524 -26.1402 11.2962
lowerback 34.0711 -0.660611 2.5019
upperback 7.01036 0.94064 9.73737
thorax -9.93639 0.279606 8.80669
lowerneck -12.3272 3.13046 1.68576
upperneck 4.38021 4.61947 -8.9918
head 3.57274 1.87473 -2.71353
rclavicle 3.81667e-014 -2.8625e-014
rhumerus -53.6643 -35.6275 -34.8423
rradius 102.858
rwrist -37.3964
rhand -15.3485 -2.28742
rfingers 7.12502
rthumb 10.8286 -31.9883
lclavicle 3.81667e-014 -2.8625e-014
lhumerus -54.5961 6.43428 82.1407
lradius 42.4245
lwrist 14.4547
lhand -4.5978 46.6671
lfingers 7.12502
lthumb 21.1798 75.5301
rfemur -33.2402 -1.69709 18.0834
rtibia 42.4312
rfoot -5.3967 -4.53283
rtoes 26.6004
lfemur -10.6839 6.29025 -33.7797
ltibia 52.4814
lfoot 2.54474 -11.1632
ltoes -37.4855
283
root 3.23751 18.1119 19.3834 -1.92999 -25.9408 11.0168
lowerback 33.6552 -0.828163 2.55578
upperback 6.86092 0.73383 9.69596
thorax -9.90866 0.189762 8.80835
lowerneck -12.3166 3.25946 1.82947
upperneck 4.35791 4.77681 -9.08775
head 3.579 1.95155 -2.75504
rclavicle -4.92986e-014 9.54166e-014
rhumerus -54.0348 -35.0253 -34.5937
rradius 104.14
rwrist -39.4709
rhand -15.8763 -2.94375
rfingers 7.12502
rthumb 10.3195 -32.6706
lclavicle -4.92986e-014 9.54166e-014
lhumerus -54.8415 6.54926 81.5509
lradius 42.3972
lwrist 14.6078
lhand -4.21868 47.2017
lfingers 7.12502
lthumb 21.544 76.0235
rfemur -33.8911 -2.15879 18.7443
rtibia 42.2576
rfoot -4.86652 -4.46671
rtoes 26.9688
lfemur -9.51862 6.14994 -34.013
ltibia 50.899
lfoot 3.13514 -12.1781
ltoes -38.5107
284
root 3.23599 18.0881 19.2401 -2.44502 -25.6261 11.9215
lowerback 33.0679 -0.935711 1.80968
upperback 6.79993 0.284555 9.37226
thorax -9.68831 0.00375181 9.0216
lowerneck -12.1582 3.34938 1.70725
upperneck 4.37408 4.92209 -9.14505
head 3.56542 2.02196 -2.74398
rclavicle 7.95139e-014 1.27222e-014
rhumerus -54.3064 -34.6521 -34.2225
rradius 105.079
rwrist -41.2097
rhand -15.2834 -2.90801
rfingers 7.12502
rthumb 10.8914 -32.6056
lclavicle 7.95139e-014 1.27222e-014
lhumerus -55.0663 6.67921 81.0482
lradius 42.2907
lwrist 14.6231
lhand -3.92351 47.7159
lfingers 7.12502
lthumb 21.8274 76.5049
rfemur -34.1617 -3.09561 18.1719
rtibia 42.1328
rfoot -4.4035 -3.81203
rtoes 26.3036
lfemur -7.75504 5.88722 -35.4977
ltibia 49.0563
lfoot 3.6573 -12.9899
ltoes -37.4156
